<?xml version="1.0" encoding="UTF-8" standalone="no"?> <svg width="512" height="512" viewBox="0 0 512 512" fill="none" xmlns="http://www.w3.org/2000/svg">
<path fill-rule="evenodd" clip-rule="evenodd" d="M128 24C70.5624 24 24 70.5624 24 128V384C24 441.438 70.5624 488 128 488H384C441.438 488 488 441.438 488 384V128C488 70.5624 441.438 24 384 24H128ZM40 128C40 79.3989 79.3989 40 128 40H384C432.601 40 472 79.3989 472 128V384C472 432.601 432.601 472 384 472H128C79.3989 472 40 432.601 40 384V128ZM182.4 111.201C173.122 98.83 155.571 96.3228 143.2 105.601C130.829 114.88 128.322 132.43 137.6 144.801L228 265.335V384.001C228 399.465 240.536 412.001 256 412.001C271.464 412.001 284 399.465 284 384.001V265.335L374.4 144.801C383.679 132.43 381.171 114.88 368.8 105.601C356.429 96.3228 338.879 98.83 329.6 111.201L256 209.335L182.4 111.201ZM152.8 118.401C158.102 114.425 165.624 115.499 169.6 120.801L249.6 227.468C251.111 229.482 253.482 230.668 256 230.668C258.518 230.668 260.889 229.482 262.4 227.468L342.4 120.801C346.377 115.499 353.898 114.425 359.2 118.401C364.502 122.378 365.577 129.899 361.6 135.201L269.6 257.868C268.562 259.253 268 260.937 268 262.668V384.001C268 390.629 262.628 396.001 256 396.001C249.373 396.001 244 390.629 244 384.001V262.668C244 260.937 243.439 259.253 242.4 257.868L150.4 135.201C146.424 129.899 147.498 122.378 152.8 118.401Z" fill="black"/>
</svg>
